<?xml version="1.0" standalone="no"?><!DOCTYPE svg PUBLIC "-//W3C//DTD SVG 1.1//EN" "http://www.w3.org/Graphics/SVG/1.1/DTD/svg11.dtd"><svg t="1674789214507" class="icon" viewBox="0 0 1024 1024" version="1.1" xmlns="http://www.w3.org/2000/svg" p-id="6221" id="mx_n_1674789214509" xmlns:xlink="http://www.w3.org/1999/xlink" width="64" height="64"><path d="M524.16 236.16l-96-72.32h-192v480a48 48 0 0 1-48 48h647.68a48 48 0 0 0 48-48V236.16z" fill="#F6BE53" p-id="6222"></path><path d="M835.84 704H188.16v-23.68a35.84 35.84 0 0 0 35.84-35.84V152.32h208l96 71.68H896v419.84a60.16 60.16 0 0 1-60.16 60.16z m-599.68-23.68h599.68a35.84 35.84 0 0 0 35.84-35.84V248.32H520.32L423.68 176H248.32v467.84a59.52 59.52 0 0 1-12.16 36.48z" fill="#34303D" p-id="6223"></path><path d="M536.32 176h360.32v24.32H536.32zM188.16 704a60.16 60.16 0 0 1-60.16-60.16V176h72.32v24.32h-48v444.16a35.84 35.84 0 0 0 10.24 25.6 37.12 37.12 0 0 0 51.2 0 35.84 35.84 0 0 0 10.24-25.6h24.32a60.16 60.16 0 0 1-60.16 60.16zM272 224H416v24.32H272zM272 272h72.32v24.32H272z" fill="#34303D" p-id="6224"></path><path d="M869.76 778.24a48 48 0 0 0-33.92-14.08H560v96h275.84a48 48 0 0 0 33.92-81.92zM512 787.84h48v48H512z" fill="#EA5E5A" p-id="6225"></path><path d="M835.84 872.32h-288v-120.32h288a60.16 60.16 0 1 1 0 120.32z m-263.68-23.68h264.32a35.84 35.84 0 0 0 25.6-64 35.84 35.84 0 0 0-25.6-10.24H572.16z" fill="#34303D" p-id="6226"></path><path d="M572.16 848H499.84v-71.68h72.32z m-48-23.68h24.32v-24.32h-24.32zM216.32 848.64L128 832v-44.16l88.32-14.72 37.12 37.12z m-64-35.2l55.68 9.6 10.88-10.88-10.88-10.88-55.68 9.6zM643.84 800h24.32v24.32h-24.32zM691.84 800h24.32v24.32h-24.32zM739.84 800h24.32v24.32h-24.32z" fill="#34303D" p-id="6227"></path><path d="M236.16 800H512v24.32H236.16zM595.84 764.16h24.32v96h-24.32z" fill="#34303D" p-id="6228"></path><path d="M704 476.16v-24.32l-38.4-9.6a107.52 107.52 0 0 0-16-37.76l20.48-33.92-17.28-17.28-33.92 20.48a107.52 107.52 0 0 0-37.76-16L572.16 320h-24.32l-9.6 38.4a107.52 107.52 0 0 0-37.76 16l-33.92-20.48-18.56 16.64 20.48 33.92a107.52 107.52 0 0 0-16 37.76l-38.4 9.6v24.32l38.4 9.6a107.52 107.52 0 0 0 16 37.76L448 557.44l18.56 18.56 33.92-20.48a106.88 106.88 0 0 0 37.76 16l9.6 38.4h24.32l9.6-38.4a107.52 107.52 0 0 0 37.76-16l33.92 20.48 17.28-17.28-20.48-33.92a107.52 107.52 0 0 0 16-37.76z" fill="#FFFFFF" p-id="6229"></path><path d="M581.12 620.16h-42.24l-10.24-40.32a118.4 118.4 0 0 1-28.16-11.52l-35.84 21.12-30.08-30.08 21.12-35.84a118.4 118.4 0 0 1-11.52-28.16l-40.32-10.24v-42.24l40.32-10.24a118.4 118.4 0 0 1 11.52-28.16l-21.12-35.84 30.08-30.08 35.84 21.12a119.04 119.04 0 0 1 28.16-11.52l10.24-40.32h42.88l10.24 40.32a119.04 119.04 0 0 1 28.16 11.52l35.84-21.12 30.08 30.08-21.12 35.84a119.04 119.04 0 0 1 11.52 28.16l40.32 10.24v42.88l-40.32 10.24a118.4 118.4 0 0 1-11.52 28.16l21.12 35.84-30.08 30.08-35.84-21.12a119.04 119.04 0 0 1-28.16 11.52z m-23.68-23.68h5.12l8.96-36.48h7.68a94.72 94.72 0 0 0 33.92-14.08l6.4-4.48 32 19.2 3.84-3.84-19.2-32 4.48-6.4a95.36 95.36 0 0 0 14.08-33.92v-7.68l36.48-8.96v-6.4l-36.48-8.96v-7.68a94.72 94.72 0 0 0-14.72-33.92l-4.48-6.4 19.2-32-3.84-3.84-32 19.2L613.12 384A94.72 94.72 0 0 0 576 369.92h-7.68l-8.96-36.48h-1.92l-8.96 36.48h-7.68a94.72 94.72 0 0 0-33.92 14.08l-6.4 4.48-32-19.2-3.84 3.84 19.2 32-4.48 6.4a95.36 95.36 0 0 0-13.44 36.48v7.68l-36.48 8.96v5.12l36.48 8.96v7.68a94.72 94.72 0 0 0 14.08 33.92l4.48 6.4-19.2 32 3.84 3.84 32-19.2 6.4 4.48a94.72 94.72 0 0 0 33.92 14.08h7.68z" fill="#34303D" p-id="6230"></path><path d="M560 536.32a72.32 72.32 0 1 1 72.32-72.32 72.32 72.32 0 0 1-72.32 72.32z m0-119.68a48 48 0 1 0 48 48 48 48 0 0 0-48-48.64z" fill="#34303D" p-id="6231"></path><path d="M547.84 451.84h24.32v24.32h-24.32z" fill="#34303D" p-id="6232"></path></svg>